<svg class="fly" viewBox="0 0 1024 1024" xmlns="http://www.w3.org/2000/svg" width="64" height="64"><defs><style/></defs><path d="M256.544 768l85.333 213.333L427.21 896V768l170.667-170.667 85.333 384 128-128V384l170.667-170.667V42.667z" opacity=".16"/><path d="M683.21 1024c-4.266 0-8.533 0-12.8-2.133-14.933-4.267-25.6-17.067-29.866-32l-68.267-307.2-102.4 102.4V896c0 10.667-4.267 21.333-12.8 29.867l-85.333 85.333c-10.667 10.667-25.6 14.933-38.4 10.667-14.934-2.134-25.6-12.8-32-25.6L222.41 800 26.144 721.067c-12.8-4.267-23.467-17.067-25.6-32-2.134-14.934 2.133-27.734 10.666-38.4l85.334-85.334c10.666-6.4 21.333-10.666 32-10.666h110.933l102.4-102.4L34.677 384c-14.933-4.267-27.733-14.933-32-29.867-4.267-14.933 0-32 10.667-42.666l128-128c8.533-8.534 19.2-12.8 29.866-12.8h452.267L781.344 12.8C789.877 4.267 800.544 0 811.21 0h170.667c23.467 0 42.667 19.2 42.667 42.667v170.666c0 10.667-4.267 21.334-12.8 29.867L853.877 401.067v452.266c0 10.667-4.267 21.334-12.8 29.867l-128 128c-8.533 8.533-19.2 12.8-29.867 12.8zm-563.2-356.267l153.6 61.867a42.259 42.259 0 0123.467 23.467l61.867 153.6 27.733-27.734V768c0-10.667 4.267-21.333 12.8-29.867l170.667-170.666c10.666-10.667 27.733-14.934 42.666-10.667 14.934 4.267 25.6 17.067 29.867 32L708.81 896l59.734-59.733V384c0-10.667 4.266-21.333 12.8-29.867L939.21 196.267V85.333H828.277L670.41 243.2c-8.533 8.533-19.2 12.8-29.866 12.8H188.277l-59.733 59.733L435.744 384c14.933 4.267 27.733 14.933 32 29.867 4.266 14.933 0 32-10.667 42.666L286.41 627.2c-8.533 8.533-19.2 12.8-29.866 12.8H145.61l-25.6 27.733z"/></svg>